<?xml version="1.0" encoding="iso-8859-1"?>
<!-- Uploaded to: SVG Repo, www.svgrepo.com, Generator: SVG Repo Mixer Tools -->
<svg fill="#000000" height="800px" width="800px" version="1.1" id="Layer_1" xmlns="http://www.w3.org/2000/svg" xmlns:xlink="http://www.w3.org/1999/xlink" 
	 viewBox="0 0 512 512" xml:space="preserve">
<g>
	<g>
		<path d="M465.083,99.294c-5.161,0-10.125,0.85-14.774,2.397c-1.146-36.95-31.539-66.66-68.762-66.66
			c-20.817,0-39.492,9.305-52.122,23.959c-12.63-14.654-31.304-23.959-52.122-23.959c-20.818,0-39.492,9.305-52.122,23.958
			c-12.63-14.654-31.303-23.958-52.122-23.958s-39.492,9.305-52.122,23.958c-12.63-14.653-31.304-23.958-52.122-23.958
			C30.871,35.031,0,65.902,0,103.848v304.304c0,37.946,30.871,68.817,68.817,68.817c20.817,0,39.492-9.305,52.122-23.958
			c12.63,14.654,31.304,23.958,52.122,23.958c20.817,0,39.492-9.305,52.122-23.958c12.63,14.654,31.304,23.958,52.122,23.958
			s39.492-9.305,52.122-23.959c12.63,14.654,31.304,23.959,52.122,23.959c37.946,0,68.816-30.871,68.816-68.817V190.749
			c4.632,1.535,9.578,2.379,14.72,2.379c25.87,0,46.917-21.047,46.917-46.916C512,120.34,490.953,99.294,465.083,99.294z
			 M104.243,408.152c0,19.534-15.892,35.426-35.426,35.426s-35.426-15.892-35.426-35.426V103.848
			c0-19.534,15.892-35.426,35.426-35.426s35.426,15.892,35.426,35.426V408.152z M208.486,408.152
			c0,19.534-15.892,35.426-35.426,35.426c-19.534,0-35.426-15.892-35.426-35.426V103.848c0-19.534,15.892-35.426,35.426-35.426
			c19.534,0,35.426,15.892,35.426,35.426V408.152z M312.73,408.152c0,19.534-15.893,35.426-35.426,35.426
			c-19.534,0-35.426-15.892-35.426-35.426V103.848c0-19.534,15.892-35.426,35.426-35.426s35.426,15.892,35.426,35.426V408.152z
			 M416.972,408.152c0,19.534-15.891,35.426-35.425,35.426c-19.534,0-35.426-15.892-35.426-35.426V103.848
			c0-19.534,15.892-35.426,35.426-35.426s35.425,15.892,35.425,35.426V408.152z M465.083,159.736
			c-7.457,0-13.525-6.067-13.525-13.525c0-7.458,6.067-13.526,13.525-13.526c7.458,0,13.526,6.067,13.526,13.526
			C478.609,153.669,472.542,159.736,465.083,159.736z"/>
	</g>
</g>
</svg>